# xmcd
#
# Track frame offsets: 
#        150
#        15267
#        36769
#        58400
#        72067
#        87483
#        107311
#        129088
#        146464
#        170568
#        189800
#        216059
#
# Disc length: 3135 seconds
#
# Revision: 0
# Processed by: cddbd v1.5.2PL0 Copyright (c) Steve Scherf et al.
# Submitted via: ExactAudioCopy v0.99pb3
#
DISCID=960c3d0c
DTITLE=Citizens Band Radio - Ol' Waylor
DYEAR=2010
DGENRE=Country
TTITLE0=Stayin' Blues
TTITLE1=Rollin' on Down the Line
TTITLE2=Without You
TTITLE3=Whistlin' Dixie
TTITLE4=Feelin' Single Seein' Double
TTITLE5=Always Gonna Be a Rolling Stone
TTITLE6=Gasoline is Gold
TTITLE7=Understand Your Man
TTITLE8=Turn to the Bottle
TTITLE9=Rambling Man Blues
TTITLE10=Wagon Wheel
TTITLE11=800 More Miles to Go
EXTD=
EXTT0=
EXTT1=
EXTT2=
EXTT3=
EXTT4=
EXTT5=
EXTT6=
EXTT7=
EXTT8=
EXTT9=
EXTT10=
EXTT11=
PLAYORDER=
